<mxfile host="app.diagrams.net" modified="2024-01-04T21:53:49.683Z" agent="Mozilla/5.0 (Windows NT 10.0; Win64; x64) AppleWebKit/537.36 (KHTML, like Gecko) Chrome/120.0.0.0 Safari/537.36" etag="Qassmv3A7XAHGQVRhCAP" version="22.1.16" type="device">
  <diagram name="Page-1" id="2YBvvXClWsGukQMizWep">
    <mxGraphModel dx="2284" dy="746" grid="1" gridSize="10" guides="1" tooltips="1" connect="1" arrows="1" fold="1" page="1" pageScale="1" pageWidth="850" pageHeight="1100" math="0" shadow="0">
      <root>
        <mxCell id="0" />
        <mxCell id="1" parent="0" />
        <mxCell id="SstaJvS2JOrcnVhmyI1x-1" value="Account Manager" style="shape=umlLifeline;perimeter=lifelinePerimeter;whiteSpace=wrap;html=1;container=0;dropTarget=0;collapsible=0;recursiveResize=0;outlineConnect=0;portConstraint=eastwest;newEdgeStyle={&quot;edgeStyle&quot;:&quot;elbowEdgeStyle&quot;,&quot;elbow&quot;:&quot;vertical&quot;,&quot;curved&quot;:0,&quot;rounded&quot;:0};" parent="1" vertex="1">
          <mxGeometry x="440" y="40" width="120" height="720" as="geometry" />
        </mxCell>
        <mxCell id="-yuf0j6Fho9ccp_7Q4jz-6" value="Web App" style="shape=umlLifeline;perimeter=lifelinePerimeter;whiteSpace=wrap;html=1;container=0;dropTarget=0;collapsible=0;recursiveResize=0;outlineConnect=0;portConstraint=eastwest;newEdgeStyle={&quot;edgeStyle&quot;:&quot;elbowEdgeStyle&quot;,&quot;elbow&quot;:&quot;vertical&quot;,&quot;curved&quot;:0,&quot;rounded&quot;:0};" parent="1" vertex="1">
          <mxGeometry x="80" y="40" width="100" height="720" as="geometry" />
        </mxCell>
        <mxCell id="-yuf0j6Fho9ccp_7Q4jz-7" value="" style="html=1;points=[];perimeter=orthogonalPerimeter;outlineConnect=0;targetShapes=umlLifeline;portConstraint=eastwest;newEdgeStyle={&quot;edgeStyle&quot;:&quot;elbowEdgeStyle&quot;,&quot;elbow&quot;:&quot;vertical&quot;,&quot;curved&quot;:0,&quot;rounded&quot;:0};" parent="-yuf0j6Fho9ccp_7Q4jz-6" vertex="1">
          <mxGeometry x="45" y="140" width="10" height="20" as="geometry" />
        </mxCell>
        <mxCell id="-yuf0j6Fho9ccp_7Q4jz-14" value="" style="html=1;points=[];perimeter=orthogonalPerimeter;outlineConnect=0;targetShapes=umlLifeline;portConstraint=eastwest;newEdgeStyle={&quot;edgeStyle&quot;:&quot;elbowEdgeStyle&quot;,&quot;elbow&quot;:&quot;vertical&quot;,&quot;curved&quot;:0,&quot;rounded&quot;:0};" parent="1" vertex="1">
          <mxGeometry x="-95" y="110" width="10" height="640" as="geometry" />
        </mxCell>
        <mxCell id="-yuf0j6Fho9ccp_7Q4jz-1" value="Battle Manager" style="shape=umlLifeline;perimeter=lifelinePerimeter;whiteSpace=wrap;html=1;container=1;dropTarget=0;collapsible=0;recursiveResize=0;outlineConnect=0;portConstraint=eastwest;newEdgeStyle={&quot;curved&quot;:0,&quot;rounded&quot;:0};" parent="1" vertex="1">
          <mxGeometry x="280" y="40" width="100" height="720" as="geometry" />
        </mxCell>
        <mxCell id="-yuf0j6Fho9ccp_7Q4jz-5" value="DBMS" style="shape=umlLifeline;perimeter=lifelinePerimeter;whiteSpace=wrap;html=1;container=0;dropTarget=0;collapsible=0;recursiveResize=0;outlineConnect=0;portConstraint=eastwest;newEdgeStyle={&quot;curved&quot;:0,&quot;rounded&quot;:0};" parent="1" vertex="1">
          <mxGeometry x="597" y="40" width="95" height="720" as="geometry" />
        </mxCell>
        <mxCell id="-yuf0j6Fho9ccp_7Q4jz-12" value="&lt;font style=&quot;font-size: 9px;&quot;&gt;Student&lt;/font&gt;" style="shape=umlActor;verticalLabelPosition=bottom;verticalAlign=top;html=1;outlineConnect=0;" parent="1" vertex="1">
          <mxGeometry x="-100" y="40" width="20" height="40" as="geometry" />
        </mxCell>
        <mxCell id="-yuf0j6Fho9ccp_7Q4jz-15" value="&lt;font style=&quot;font-size: 9px;&quot;&gt;1 : click(battleButton)&lt;/font&gt;" style="html=1;verticalAlign=bottom;endArrow=block;edgeStyle=elbowEdgeStyle;elbow=horizontal;curved=0;rounded=0;" parent="1" source="-yuf0j6Fho9ccp_7Q4jz-14" target="-yuf0j6Fho9ccp_7Q4jz-7" edge="1">
          <mxGeometry relative="1" as="geometry">
            <mxPoint x="-85" y="170" as="sourcePoint" />
            <Array as="points">
              <mxPoint x="20" y="180" />
            </Array>
            <mxPoint x="115" y="170" as="targetPoint" />
          </mxGeometry>
        </mxCell>
        <mxCell id="-yuf0j6Fho9ccp_7Q4jz-16" value="&lt;font style=&quot;font-size: 9px;&quot;&gt;2 : showPage(battlePage)&lt;/font&gt;" style="html=1;verticalAlign=bottom;endArrow=openThin;dashed=1;endSize=8;edgeStyle=elbowEdgeStyle;elbow=vertical;curved=0;rounded=0;endFill=0;" parent="1" source="-yuf0j6Fho9ccp_7Q4jz-7" target="-yuf0j6Fho9ccp_7Q4jz-14" edge="1">
          <mxGeometry relative="1" as="geometry">
            <mxPoint x="-85" y="200" as="targetPoint" />
            <Array as="points">
              <mxPoint x="5" y="200" />
            </Array>
            <mxPoint x="80" y="200" as="sourcePoint" />
          </mxGeometry>
        </mxCell>
        <mxCell id="-yuf0j6Fho9ccp_7Q4jz-21" value="" style="endArrow=none;dashed=1;html=1;rounded=0;" parent="1" edge="1">
          <mxGeometry width="50" height="50" relative="1" as="geometry">
            <mxPoint x="-90.43" y="110" as="sourcePoint" />
            <mxPoint x="-90.43" y="100" as="targetPoint" />
          </mxGeometry>
        </mxCell>
        <mxCell id="-yuf0j6Fho9ccp_7Q4jz-20" value="&lt;b&gt;ref&lt;/b&gt;" style="shape=umlFrame;whiteSpace=wrap;html=1;pointerEvents=0;width=50;height=15;labelBorderColor=none;labelBackgroundColor=none;fontColor=default;swimlaneFillColor=default;" parent="1" vertex="1">
          <mxGeometry x="-220" y="120" width="910" height="40" as="geometry" />
        </mxCell>
        <mxCell id="-yuf0j6Fho9ccp_7Q4jz-49" value="&lt;b&gt;&lt;font style=&quot;font-size: 20px;&quot;&gt;Login&lt;/font&gt;&lt;/b&gt;" style="text;html=1;strokeColor=none;fillColor=none;align=center;verticalAlign=middle;whiteSpace=wrap;rounded=0;" parent="1" vertex="1">
          <mxGeometry x="215" y="125" width="60" height="30" as="geometry" />
        </mxCell>
        <mxCell id="-yuf0j6Fho9ccp_7Q4jz-2" value="" style="html=1;points=[];perimeter=orthogonalPerimeter;outlineConnect=0;targetShapes=umlLifeline;portConstraint=eastwest;newEdgeStyle={&quot;edgeStyle&quot;:&quot;elbowEdgeStyle&quot;,&quot;elbow&quot;:&quot;vertical&quot;,&quot;curved&quot;:0,&quot;rounded&quot;:0};" parent="1" vertex="1">
          <mxGeometry x="325" y="240" width="10" height="230" as="geometry" />
        </mxCell>
        <mxCell id="-yuf0j6Fho9ccp_7Q4jz-8" value="" style="html=1;points=[];perimeter=orthogonalPerimeter;outlineConnect=0;targetShapes=umlLifeline;portConstraint=eastwest;newEdgeStyle={&quot;edgeStyle&quot;:&quot;elbowEdgeStyle&quot;,&quot;elbow&quot;:&quot;vertical&quot;,&quot;curved&quot;:0,&quot;rounded&quot;:0};" parent="1" vertex="1">
          <mxGeometry x="125" y="230" width="10" height="310" as="geometry" />
        </mxCell>
        <mxCell id="-yuf0j6Fho9ccp_7Q4jz-17" value="&lt;font style=&quot;font-size: 9px;&quot;&gt;4 : enterBattle(groupId, battleId)&lt;/font&gt;" style="html=1;verticalAlign=bottom;endArrow=block;edgeStyle=elbowEdgeStyle;elbow=horizontal;curved=0;rounded=0;" parent="1" source="-yuf0j6Fho9ccp_7Q4jz-8" target="-yuf0j6Fho9ccp_7Q4jz-2" edge="1">
          <mxGeometry relative="1" as="geometry">
            <mxPoint x="134" y="240" as="sourcePoint" />
            <Array as="points">
              <mxPoint x="190" y="240" />
              <mxPoint x="249" y="240" />
            </Array>
            <mxPoint x="314" y="240" as="targetPoint" />
            <mxPoint as="offset" />
          </mxGeometry>
        </mxCell>
        <mxCell id="-yuf0j6Fho9ccp_7Q4jz-24" value="&lt;font style=&quot;font-size: 9px;&quot;&gt;3 : click(joinBattleButton)&lt;/font&gt;" style="html=1;verticalAlign=bottom;endArrow=block;edgeStyle=elbowEdgeStyle;elbow=horizontal;curved=0;rounded=0;" parent="1" edge="1">
          <mxGeometry relative="1" as="geometry">
            <mxPoint x="-85.00000000000011" y="230" as="sourcePoint" />
            <Array as="points">
              <mxPoint x="30" y="230" />
            </Array>
            <mxPoint x="125" y="230" as="targetPoint" />
          </mxGeometry>
        </mxCell>
        <mxCell id="SstaJvS2JOrcnVhmyI1x-6" value="" style="html=1;points=[];perimeter=orthogonalPerimeter;outlineConnect=0;targetShapes=umlLifeline;portConstraint=eastwest;newEdgeStyle={&quot;edgeStyle&quot;:&quot;elbowEdgeStyle&quot;,&quot;elbow&quot;:&quot;vertical&quot;,&quot;curved&quot;:0,&quot;rounded&quot;:0};" parent="1" vertex="1">
          <mxGeometry x="495" y="260" width="10" height="30" as="geometry" />
        </mxCell>
        <mxCell id="SstaJvS2JOrcnVhmyI1x-7" value="&lt;font style=&quot;font-size: 9px;&quot;&gt;5 : checkUser(sessionData)&lt;/font&gt;" style="html=1;verticalAlign=bottom;endArrow=block;edgeStyle=elbowEdgeStyle;elbow=horizontal;curved=0;rounded=0;" parent="1" target="SstaJvS2JOrcnVhmyI1x-6" edge="1">
          <mxGeometry relative="1" as="geometry">
            <mxPoint x="335" y="260" as="sourcePoint" />
            <Array as="points">
              <mxPoint x="390" y="260" />
              <mxPoint x="449" y="260" />
            </Array>
            <mxPoint x="525" y="260" as="targetPoint" />
            <mxPoint as="offset" />
          </mxGeometry>
        </mxCell>
        <mxCell id="SstaJvS2JOrcnVhmyI1x-8" value="&lt;font style=&quot;font-size: 9px;&quot;&gt;6 : outcomePermissionCheck&lt;/font&gt;" style="html=1;verticalAlign=bottom;endArrow=open;dashed=1;endSize=8;edgeStyle=elbowEdgeStyle;elbow=horizontal;curved=0;rounded=0;" parent="1" source="SstaJvS2JOrcnVhmyI1x-6" edge="1">
          <mxGeometry relative="1" as="geometry">
            <mxPoint x="335" y="290" as="targetPoint" />
            <Array as="points">
              <mxPoint x="415" y="290" />
            </Array>
            <mxPoint x="605" y="290" as="sourcePoint" />
          </mxGeometry>
        </mxCell>
        <mxCell id="SstaJvS2JOrcnVhmyI1x-9" value="&lt;font style=&quot;font-size: 9px;&quot;&gt;&lt;b&gt;alt &lt;/b&gt;: outcomePermissionCheck == true&lt;/font&gt;" style="shape=umlFrame;whiteSpace=wrap;html=1;pointerEvents=0;width=120;height=48;" parent="1" vertex="1">
          <mxGeometry x="-220" y="302" width="910" height="458" as="geometry" />
        </mxCell>
        <mxCell id="-yuf0j6Fho9ccp_7Q4jz-36" value="&lt;font style=&quot;font-size: 9px;&quot;&gt;10 : outcomeMessage&lt;/font&gt;" style="html=1;verticalAlign=bottom;endArrow=openThin;dashed=1;endSize=8;edgeStyle=elbowEdgeStyle;elbow=horizontal;curved=0;rounded=0;endFill=0;" parent="1" source="-yuf0j6Fho9ccp_7Q4jz-2" edge="1" target="-yuf0j6Fho9ccp_7Q4jz-8">
          <mxGeometry relative="1" as="geometry">
            <mxPoint x="133.16000000000003" y="472.5999999999999" as="targetPoint" />
            <Array as="points">
              <mxPoint x="320" y="470" />
            </Array>
            <mxPoint x="323.16" y="472.5999999999999" as="sourcePoint" />
          </mxGeometry>
        </mxCell>
        <mxCell id="-yuf0j6Fho9ccp_7Q4jz-10" value="" style="html=1;points=[];perimeter=orthogonalPerimeter;outlineConnect=0;targetShapes=umlLifeline;portConstraint=eastwest;newEdgeStyle={&quot;edgeStyle&quot;:&quot;elbowEdgeStyle&quot;,&quot;elbow&quot;:&quot;vertical&quot;,&quot;curved&quot;:0,&quot;rounded&quot;:0};" parent="1" vertex="1">
          <mxGeometry x="125.16000000000003" y="559.18" width="10" height="40" as="geometry" />
        </mxCell>
        <mxCell id="-yuf0j6Fho9ccp_7Q4jz-35" value="[else]" style="text;html=1;strokeColor=none;fillColor=none;align=center;verticalAlign=middle;whiteSpace=wrap;rounded=0;fontSize=10;" parent="1" vertex="1">
          <mxGeometry x="-169.84000000000015" y="570.0000000000001" width="35" height="10" as="geometry" />
        </mxCell>
        <mxCell id="-yuf0j6Fho9ccp_7Q4jz-37" value="&lt;font style=&quot;font-size: 9px;&quot;&gt;11 : showMessage(groupSuccessfullySubscribed)&lt;/font&gt;" style="html=1;verticalAlign=bottom;endArrow=openThin;dashed=1;endSize=8;edgeStyle=elbowEdgeStyle;elbow=vertical;curved=0;rounded=0;endFill=0;" parent="1" edge="1">
          <mxGeometry relative="1" as="geometry">
            <mxPoint x="-86.84000000000015" y="488" as="targetPoint" />
            <Array as="points">
              <mxPoint x="118.16000000000003" y="488" />
            </Array>
            <mxPoint x="123.16000000000003" y="488" as="sourcePoint" />
          </mxGeometry>
        </mxCell>
        <mxCell id="-yuf0j6Fho9ccp_7Q4jz-41" value="&lt;p style=&quot;line-height: 120%; font-size: 9px;&quot;&gt;&lt;b style=&quot;border-color: var(--border-color);&quot;&gt;alt:&amp;nbsp;&lt;/b&gt;outcomeInsert == true&lt;br&gt;&lt;/p&gt;" style="shape=umlFrame;whiteSpace=wrap;html=1;pointerEvents=0;width=90;height=30;verticalAlign=middle;horizontal=1;labelPosition=center;verticalLabelPosition=middle;align=center;" parent="1" vertex="1">
          <mxGeometry x="-201.84" y="430" width="860" height="178" as="geometry" />
        </mxCell>
        <mxCell id="-yuf0j6Fho9ccp_7Q4jz-42" value="[then]" style="text;html=1;strokeColor=none;fillColor=none;align=center;verticalAlign=middle;whiteSpace=wrap;rounded=0;fontSize=10;" parent="1" vertex="1">
          <mxGeometry x="-169.84000000000015" y="470" width="35" height="10" as="geometry" />
        </mxCell>
        <mxCell id="-yuf0j6Fho9ccp_7Q4jz-43" value="" style="endArrow=none;dashed=1;html=1;rounded=0;strokeWidth=2;" parent="1" edge="1">
          <mxGeometry width="50" height="50" relative="1" as="geometry">
            <mxPoint x="-201.84000000000015" y="558" as="sourcePoint" />
            <mxPoint x="658.16" y="558" as="targetPoint" />
          </mxGeometry>
        </mxCell>
        <mxCell id="-yuf0j6Fho9ccp_7Q4jz-45" value="&lt;font style=&quot;font-size: 9px;&quot;&gt;12 : click(confirmButton)&lt;/font&gt;" style="html=1;verticalAlign=bottom;endArrow=open;edgeStyle=elbowEdgeStyle;elbow=horizontal;curved=0;rounded=0;endFill=0;" parent="1" edge="1">
          <mxGeometry relative="1" as="geometry">
            <mxPoint x="-85.84000000000015" y="512.5799999999999" as="sourcePoint" />
            <Array as="points">
              <mxPoint x="28.159999999999968" y="512.5799999999999" />
            </Array>
            <mxPoint x="124.16000000000003" y="512.5799999999999" as="targetPoint" />
          </mxGeometry>
        </mxCell>
        <mxCell id="-yuf0j6Fho9ccp_7Q4jz-46" value="&lt;font style=&quot;font-size: 9px;&quot;&gt;13 : showPage(battlePage)&lt;/font&gt;" style="html=1;verticalAlign=bottom;endArrow=openThin;dashed=1;endSize=8;edgeStyle=elbowEdgeStyle;elbow=vertical;curved=0;rounded=0;endFill=0;" parent="1" edge="1">
          <mxGeometry x="-0.0009" relative="1" as="geometry">
            <mxPoint x="-86.84000000000003" y="538" as="targetPoint" />
            <Array as="points">
              <mxPoint x="28.159999999999968" y="538" />
            </Array>
            <mxPoint x="123.16000000000003" y="538" as="sourcePoint" />
            <mxPoint as="offset" />
          </mxGeometry>
        </mxCell>
        <mxCell id="-yuf0j6Fho9ccp_7Q4jz-48" value="&lt;font style=&quot;font-size: 9px;&quot;&gt;15 : showMessage(errorWhileSubscribingGroup)&lt;/font&gt;" style="html=1;verticalAlign=bottom;endArrow=openThin;dashed=1;endSize=8;edgeStyle=elbowEdgeStyle;elbow=vertical;curved=0;rounded=0;endFill=0;" parent="1" source="-yuf0j6Fho9ccp_7Q4jz-10" edge="1">
          <mxGeometry relative="1" as="geometry">
            <mxPoint x="-84.84000000000015" y="597.9999999999998" as="targetPoint" />
            <Array as="points">
              <mxPoint x="60.15999999999997" y="598" />
            </Array>
            <mxPoint x="155.16000000000003" y="598" as="sourcePoint" />
          </mxGeometry>
        </mxCell>
        <mxCell id="-yuf0j6Fho9ccp_7Q4jz-9" value="" style="html=1;points=[];perimeter=orthogonalPerimeter;outlineConnect=0;targetShapes=umlLifeline;portConstraint=eastwest;newEdgeStyle={&quot;edgeStyle&quot;:&quot;elbowEdgeStyle&quot;,&quot;elbow&quot;:&quot;vertical&quot;,&quot;curved&quot;:0,&quot;rounded&quot;:0};" parent="1" vertex="1">
          <mxGeometry x="325.16" y="559.18" width="10" height="21.18" as="geometry" />
        </mxCell>
        <mxCell id="-yuf0j6Fho9ccp_7Q4jz-11" value="&lt;font style=&quot;font-size: 9px;&quot;&gt;14 : outcomeMessage&lt;/font&gt;" style="html=1;verticalAlign=bottom;endArrow=openThin;dashed=1;endSize=8;edgeStyle=elbowEdgeStyle;elbow=horizontal;curved=0;rounded=0;endFill=0;" parent="1" source="-yuf0j6Fho9ccp_7Q4jz-9" target="-yuf0j6Fho9ccp_7Q4jz-10" edge="1">
          <mxGeometry relative="1" as="geometry">
            <mxPoint x="130.16000000000003" y="569.18" as="targetPoint" />
            <Array as="points">
              <mxPoint x="230.16000000000003" y="579.18" />
            </Array>
            <mxPoint x="264.16" y="626.1800000000001" as="sourcePoint" />
          </mxGeometry>
        </mxCell>
        <mxCell id="SstaJvS2JOrcnVhmyI1x-16" value="[then]" style="text;html=1;strokeColor=none;fillColor=none;align=center;verticalAlign=middle;whiteSpace=wrap;rounded=0;fontSize=10;" parent="1" vertex="1">
          <mxGeometry x="-181.84000000000015" y="413.5" width="35" height="10" as="geometry" />
        </mxCell>
        <mxCell id="SstaJvS2JOrcnVhmyI1x-11" value="&lt;font style=&quot;font-size: 9px;&quot;&gt;17 : showMessage(errorGroupNotValid)&lt;/font&gt;" style="html=1;verticalAlign=bottom;endArrow=openThin;dashed=1;endSize=8;edgeStyle=elbowEdgeStyle;elbow=vertical;curved=0;rounded=0;endFill=0;" parent="1" source="SstaJvS2JOrcnVhmyI1x-13" edge="1">
          <mxGeometry relative="1" as="geometry">
            <mxPoint x="-84.84000000000015" y="657.9999999999998" as="targetPoint" />
            <Array as="points">
              <mxPoint x="100.15999999999997" y="658" />
            </Array>
            <mxPoint x="103.15999999999997" y="766.1800000000001" as="sourcePoint" />
          </mxGeometry>
        </mxCell>
        <mxCell id="SstaJvS2JOrcnVhmyI1x-12" value="" style="html=1;points=[];perimeter=orthogonalPerimeter;outlineConnect=0;targetShapes=umlLifeline;portConstraint=eastwest;newEdgeStyle={&quot;edgeStyle&quot;:&quot;elbowEdgeStyle&quot;,&quot;elbow&quot;:&quot;vertical&quot;,&quot;curved&quot;:0,&quot;rounded&quot;:0};" parent="1" vertex="1">
          <mxGeometry x="325.16" y="618" width="10" height="20" as="geometry" />
        </mxCell>
        <mxCell id="SstaJvS2JOrcnVhmyI1x-13" value="" style="html=1;points=[];perimeter=orthogonalPerimeter;outlineConnect=0;targetShapes=umlLifeline;portConstraint=eastwest;newEdgeStyle={&quot;edgeStyle&quot;:&quot;elbowEdgeStyle&quot;,&quot;elbow&quot;:&quot;vertical&quot;,&quot;curved&quot;:0,&quot;rounded&quot;:0};" parent="1" vertex="1">
          <mxGeometry x="125.15999999999997" y="618" width="10" height="40" as="geometry" />
        </mxCell>
        <mxCell id="SstaJvS2JOrcnVhmyI1x-14" value="&lt;font style=&quot;font-size: 9px;&quot;&gt;16 : outcomeMessage&lt;/font&gt;" style="html=1;verticalAlign=bottom;endArrow=openThin;dashed=1;endSize=8;edgeStyle=elbowEdgeStyle;elbow=horizontal;curved=0;rounded=0;endFill=0;" parent="1" source="SstaJvS2JOrcnVhmyI1x-12" target="SstaJvS2JOrcnVhmyI1x-13" edge="1">
          <mxGeometry relative="1" as="geometry">
            <mxPoint x="134.15999999999997" y="736.1800000000001" as="targetPoint" />
            <Array as="points">
              <mxPoint x="220.15999999999997" y="638" />
            </Array>
            <mxPoint x="264.16" y="736.1800000000001" as="sourcePoint" />
          </mxGeometry>
        </mxCell>
        <mxCell id="SstaJvS2JOrcnVhmyI1x-15" value="[else]" style="text;html=1;strokeColor=none;fillColor=none;align=center;verticalAlign=middle;whiteSpace=wrap;rounded=0;fontSize=10;" parent="1" vertex="1">
          <mxGeometry x="-181.84000000000015" y="628.0000000000001" width="35" height="10" as="geometry" />
        </mxCell>
        <mxCell id="1OyYPmV60WIx9R8XMoGW-2" value="" style="endArrow=none;dashed=1;html=1;rounded=0;" edge="1" parent="1">
          <mxGeometry width="50" height="50" relative="1" as="geometry">
            <mxPoint x="-90.50000000000003" y="760" as="sourcePoint" />
            <mxPoint x="-90.50000000000003" y="750" as="targetPoint" />
          </mxGeometry>
        </mxCell>
        <mxCell id="-yuf0j6Fho9ccp_7Q4jz-38" value="" style="html=1;points=[];perimeter=orthogonalPerimeter;outlineConnect=0;targetShapes=umlLifeline;portConstraint=eastwest;newEdgeStyle={&quot;edgeStyle&quot;:&quot;elbowEdgeStyle&quot;,&quot;elbow&quot;:&quot;vertical&quot;,&quot;curved&quot;:0,&quot;rounded&quot;:0};" parent="1" vertex="1">
          <mxGeometry x="640" y="389.5" width="10" height="20" as="geometry" />
        </mxCell>
        <mxCell id="-yuf0j6Fho9ccp_7Q4jz-39" value="&lt;font style=&quot;font-size: 9px;&quot;&gt;8 : subscribeGroupToBattle(query)&lt;/font&gt;" style="html=1;verticalAlign=bottom;endArrow=block;edgeStyle=elbowEdgeStyle;elbow=vertical;curved=0;rounded=0;" parent="1" target="-yuf0j6Fho9ccp_7Q4jz-38" edge="1">
          <mxGeometry relative="1" as="geometry">
            <mxPoint x="335" y="389.5" as="sourcePoint" />
            <Array as="points">
              <mxPoint x="530" y="389.5" />
            </Array>
            <mxPoint x="770" y="399.5" as="targetPoint" />
            <mxPoint as="offset" />
          </mxGeometry>
        </mxCell>
        <mxCell id="-yuf0j6Fho9ccp_7Q4jz-40" value="&lt;font style=&quot;font-size: 9px;&quot;&gt;9 : outcomeInsert&lt;/font&gt;" style="html=1;verticalAlign=bottom;endArrow=openThin;dashed=1;endSize=8;edgeStyle=elbowEdgeStyle;elbow=horizontal;curved=0;rounded=0;endFill=0;" parent="1" source="-yuf0j6Fho9ccp_7Q4jz-38" edge="1">
          <mxGeometry relative="1" as="geometry">
            <mxPoint x="335" y="409.5" as="targetPoint" />
            <Array as="points">
              <mxPoint x="560" y="409.5" />
            </Array>
            <mxPoint x="765" y="409.5" as="sourcePoint" />
            <mxPoint as="offset" />
          </mxGeometry>
        </mxCell>
        <mxCell id="1OyYPmV60WIx9R8XMoGW-5" value="" style="html=1;points=[[0,0,0,0,5],[0,1,0,0,-5],[1,0,0,0,5],[1,1,0,0,-5]];perimeter=orthogonalPerimeter;outlineConnect=0;targetShapes=umlLifeline;portConstraint=eastwest;newEdgeStyle={&quot;curved&quot;:0,&quot;rounded&quot;:0};" vertex="1" parent="1">
          <mxGeometry x="328" y="335" width="10" height="25" as="geometry" />
        </mxCell>
        <mxCell id="1OyYPmV60WIx9R8XMoGW-6" value="&lt;font style=&quot;font-size: 9px;&quot;&gt;7 : checkGroupValidity(groupId)&lt;/font&gt;" style="html=1;align=left;spacingLeft=2;endArrow=block;rounded=0;edgeStyle=orthogonalEdgeStyle;curved=0;rounded=0;" edge="1" target="1OyYPmV60WIx9R8XMoGW-5" parent="1" source="-yuf0j6Fho9ccp_7Q4jz-2">
          <mxGeometry relative="1" as="geometry">
            <mxPoint x="333" y="315" as="sourcePoint" />
            <Array as="points">
              <mxPoint x="363" y="320" />
              <mxPoint x="363" y="340" />
            </Array>
          </mxGeometry>
        </mxCell>
        <mxCell id="1OyYPmV60WIx9R8XMoGW-8" value="&lt;font style=&quot;font-size: 9px;&quot;&gt;&lt;b&gt;alt &lt;/b&gt;: groupValid == true&lt;/font&gt;" style="shape=umlFrame;whiteSpace=wrap;html=1;pointerEvents=0;width=105;height=40;" vertex="1" parent="1">
          <mxGeometry x="-215" y="370" width="885" height="310" as="geometry" />
        </mxCell>
        <mxCell id="1OyYPmV60WIx9R8XMoGW-9" value="[then]" style="text;html=1;strokeColor=none;fillColor=none;align=center;verticalAlign=middle;whiteSpace=wrap;rounded=0;fontSize=10;" vertex="1" parent="1">
          <mxGeometry x="-181.84000000000015" y="356" width="35" height="10" as="geometry" />
        </mxCell>
        <mxCell id="1OyYPmV60WIx9R8XMoGW-12" value="[else]" style="text;html=1;strokeColor=none;fillColor=none;align=center;verticalAlign=middle;whiteSpace=wrap;rounded=0;fontSize=10;" vertex="1" parent="1">
          <mxGeometry x="-181.84000000000015" y="700.0000000000001" width="35" height="10" as="geometry" />
        </mxCell>
        <mxCell id="1OyYPmV60WIx9R8XMoGW-13" value="&lt;font style=&quot;font-size: 9px;&quot;&gt;19 : showMessage(permissionDenied)&lt;/font&gt;" style="html=1;verticalAlign=bottom;endArrow=openThin;dashed=1;endSize=8;edgeStyle=elbowEdgeStyle;elbow=vertical;curved=0;rounded=0;endFill=0;" edge="1" parent="1" source="1OyYPmV60WIx9R8XMoGW-15">
          <mxGeometry relative="1" as="geometry">
            <mxPoint x="-84.84000000000015" y="729.9999999999998" as="targetPoint" />
            <Array as="points">
              <mxPoint x="100.15999999999997" y="730" />
            </Array>
            <mxPoint x="103.15999999999997" y="838.1800000000001" as="sourcePoint" />
          </mxGeometry>
        </mxCell>
        <mxCell id="1OyYPmV60WIx9R8XMoGW-14" value="" style="html=1;points=[];perimeter=orthogonalPerimeter;outlineConnect=0;targetShapes=umlLifeline;portConstraint=eastwest;newEdgeStyle={&quot;edgeStyle&quot;:&quot;elbowEdgeStyle&quot;,&quot;elbow&quot;:&quot;vertical&quot;,&quot;curved&quot;:0,&quot;rounded&quot;:0};" vertex="1" parent="1">
          <mxGeometry x="325.16" y="690" width="10" height="20" as="geometry" />
        </mxCell>
        <mxCell id="1OyYPmV60WIx9R8XMoGW-15" value="" style="html=1;points=[];perimeter=orthogonalPerimeter;outlineConnect=0;targetShapes=umlLifeline;portConstraint=eastwest;newEdgeStyle={&quot;edgeStyle&quot;:&quot;elbowEdgeStyle&quot;,&quot;elbow&quot;:&quot;vertical&quot;,&quot;curved&quot;:0,&quot;rounded&quot;:0};" vertex="1" parent="1">
          <mxGeometry x="125.15999999999997" y="690" width="10" height="40" as="geometry" />
        </mxCell>
        <mxCell id="1OyYPmV60WIx9R8XMoGW-16" value="&lt;font style=&quot;font-size: 9px;&quot;&gt;18 : outcomeMessage&lt;/font&gt;" style="html=1;verticalAlign=bottom;endArrow=openThin;dashed=1;endSize=8;edgeStyle=elbowEdgeStyle;elbow=horizontal;curved=0;rounded=0;endFill=0;" edge="1" parent="1" source="1OyYPmV60WIx9R8XMoGW-14" target="1OyYPmV60WIx9R8XMoGW-15">
          <mxGeometry relative="1" as="geometry">
            <mxPoint x="134.15999999999997" y="808.1800000000001" as="targetPoint" />
            <Array as="points">
              <mxPoint x="220.15999999999997" y="710" />
            </Array>
            <mxPoint x="264.16" y="808.1800000000001" as="sourcePoint" />
          </mxGeometry>
        </mxCell>
        <mxCell id="1OyYPmV60WIx9R8XMoGW-19" value="" style="endArrow=none;dashed=1;html=1;rounded=0;strokeWidth=2;exitX=0.001;exitY=0.797;exitDx=0;exitDy=0;exitPerimeter=0;entryX=1;entryY=0.8;entryDx=0;entryDy=0;entryPerimeter=0;" edge="1" parent="1">
          <mxGeometry width="50" height="50" relative="1" as="geometry">
            <mxPoint x="-214" y="617" as="sourcePoint" />
            <mxPoint x="670" y="618" as="targetPoint" />
          </mxGeometry>
        </mxCell>
        <mxCell id="1OyYPmV60WIx9R8XMoGW-20" value="" style="endArrow=none;dashed=1;html=1;rounded=0;strokeWidth=2;exitX=0.001;exitY=0.797;exitDx=0;exitDy=0;exitPerimeter=0;" edge="1" parent="1">
          <mxGeometry width="50" height="50" relative="1" as="geometry">
            <mxPoint x="-220" y="690" as="sourcePoint" />
            <mxPoint x="690" y="692" as="targetPoint" />
          </mxGeometry>
        </mxCell>
      </root>
    </mxGraphModel>
  </diagram>
</mxfile>
